<?xml version="1.0" encoding="UTF-8" standalone="no"?>
<!DOCTYPE svg PUBLIC "-//W3C//DTD SVG 1.1//EN"
 "http://www.w3.org/Graphics/SVG/1.1/DTD/svg11.dtd">
<!-- Generated by graphviz version 2.43.0 (0)
 -->
<!-- Title: %3 Pages: 1 -->
<svg width="3334pt" height="620pt"
 viewBox="0.00 0.00 3333.61 620.00" xmlns="http://www.w3.org/2000/svg" xmlns:xlink="http://www.w3.org/1999/xlink">
<g id="graph0" class="graph" transform="scale(1 1) rotate(0) translate(4 616)">
<title>%3</title>
<polygon fill="white" stroke="transparent" points="-4,4 -4,-616 3329.61,-616 3329.61,4 -4,4"/>
<!-- [root] aws_security_group_rule.allow_mytest (expand) -->
<g id="node1" class="node">
<title>[root] aws_security_group_rule.allow_mytest (expand)</title>
<polygon fill="none" stroke="black" points="688.43,-396 397.43,-396 397.43,-360 688.43,-360 688.43,-396"/>
<text text-anchor="middle" x="542.93" y="-374.3" font-family="Times,serif" font-size="14.00">aws_security_group_rule.allow_mytest</text>
</g>
<!-- [root] module.webservers.output.my_module_sg_id (expand) -->
<g id="node16" class="node">
<title>[root] module.webservers.output.my_module_sg_id (expand)</title>
<ellipse fill="none" stroke="black" cx="902.93" cy="-306" rx="291.35" ry="18"/>
<text text-anchor="middle" x="902.93" y="-302.3" font-family="Times,serif" font-size="14.00">[root] module.webservers.output.my_module_sg_id (expand)</text>
</g>
<!-- [root] aws_security_group_rule.allow_mytest (expand)&#45;&gt;[root] module.webservers.output.my_module_sg_id (expand) -->
<g id="edge1" class="edge">
<title>[root] aws_security_group_rule.allow_mytest (expand)&#45;&gt;[root] module.webservers.output.my_module_sg_id (expand)</title>
<path fill="none" stroke="black" d="M630.54,-359.97C684.61,-349.45 753.95,-335.97 809.14,-325.24"/>
<polygon fill="black" stroke="black" points="810.13,-328.61 819.27,-323.27 808.79,-321.74 810.13,-328.61"/>
</g>
<!-- [root] module.webservers.aws_autoscaling_group.my_first_asg (expand) -->
<g id="node2" class="node">
<title>[root] module.webservers.aws_autoscaling_group.my_first_asg (expand)</title>
<polygon fill="none" stroke="black" points="2646.43,-324 2227.43,-324 2227.43,-288 2646.43,-288 2646.43,-324"/>
<text text-anchor="middle" x="2436.93" y="-302.3" font-family="Times,serif" font-size="14.00">module.webservers.aws_autoscaling_group.my_first_asg</text>
</g>
<!-- [root] module.webservers.aws_elb.my_first_elb (expand) -->
<g id="node4" class="node">
<title>[root] module.webservers.aws_elb.my_first_elb (expand)</title>
<polygon fill="none" stroke="black" points="2526.93,-252 2218.93,-252 2218.93,-216 2526.93,-216 2526.93,-252"/>
<text text-anchor="middle" x="2372.93" y="-230.3" font-family="Times,serif" font-size="14.00">module.webservers.aws_elb.my_first_elb</text>
</g>
<!-- [root] module.webservers.aws_autoscaling_group.my_first_asg (expand)&#45;&gt;[root] module.webservers.aws_elb.my_first_elb (expand) -->
<g id="edge13" class="edge">
<title>[root] module.webservers.aws_autoscaling_group.my_first_asg (expand)&#45;&gt;[root] module.webservers.aws_elb.my_first_elb (expand)</title>
<path fill="none" stroke="black" d="M2421.11,-287.7C2413.36,-279.22 2403.89,-268.86 2395.41,-259.58"/>
<polygon fill="black" stroke="black" points="2397.9,-257.12 2388.57,-252.1 2392.73,-261.85 2397.9,-257.12"/>
</g>
<!-- [root] module.webservers.aws_launch_configuration.my&#45;first&#45;launch&#45;conf (expand) -->
<g id="node5" class="node">
<title>[root] module.webservers.aws_launch_configuration.my&#45;first&#45;launch&#45;conf (expand)</title>
<polygon fill="none" stroke="black" points="3034.93,-252 2544.93,-252 2544.93,-216 3034.93,-216 3034.93,-252"/>
<text text-anchor="middle" x="2789.93" y="-230.3" font-family="Times,serif" font-size="14.00">module.webservers.aws_launch_configuration.my&#45;first&#45;launch&#45;conf</text>
</g>
<!-- [root] module.webservers.aws_autoscaling_group.my_first_asg (expand)&#45;&gt;[root] module.webservers.aws_launch_configuration.my&#45;first&#45;launch&#45;conf (expand) -->
<g id="edge14" class="edge">
<title>[root] module.webservers.aws_autoscaling_group.my_first_asg (expand)&#45;&gt;[root] module.webservers.aws_launch_configuration.my&#45;first&#45;launch&#45;conf (expand)</title>
<path fill="none" stroke="black" d="M2522.83,-287.97C2574.61,-277.7 2640.66,-264.6 2694.12,-254"/>
<polygon fill="black" stroke="black" points="2694.82,-257.43 2703.95,-252.05 2693.46,-250.56 2694.82,-257.43"/>
</g>
<!-- [root] module.webservers.aws_autoscaling_policy.my_asg_policy (expand) -->
<g id="node3" class="node">
<title>[root] module.webservers.aws_autoscaling_policy.my_asg_policy (expand)</title>
<polygon fill="none" stroke="black" points="2133.93,-396 1703.93,-396 1703.93,-360 2133.93,-360 2133.93,-396"/>
<text text-anchor="middle" x="1918.93" y="-374.3" font-family="Times,serif" font-size="14.00">module.webservers.aws_autoscaling_policy.my_asg_policy</text>
</g>
<!-- [root] module.webservers.aws_autoscaling_policy.my_asg_policy (expand)&#45;&gt;[root] module.webservers.aws_autoscaling_group.my_first_asg (expand) -->
<g id="edge15" class="edge">
<title>[root] module.webservers.aws_autoscaling_policy.my_asg_policy (expand)&#45;&gt;[root] module.webservers.aws_autoscaling_group.my_first_asg (expand)</title>
<path fill="none" stroke="black" d="M2044.98,-359.97C2122.38,-349.51 2221.51,-336.11 2300.71,-325.41"/>
<polygon fill="black" stroke="black" points="2301.32,-328.86 2310.76,-324.05 2300.38,-321.92 2301.32,-328.86"/>
</g>
<!-- [root] module.webservers.aws_security_group.webserver_sg (expand) -->
<g id="node8" class="node">
<title>[root] module.webservers.aws_security_group.webserver_sg (expand)</title>
<polygon fill="none" stroke="black" points="990.93,-180 586.93,-180 586.93,-144 990.93,-144 990.93,-180"/>
<text text-anchor="middle" x="788.93" y="-158.3" font-family="Times,serif" font-size="14.00">module.webservers.aws_security_group.webserver_sg</text>
</g>
<!-- [root] module.webservers.aws_elb.my_first_elb (expand)&#45;&gt;[root] module.webservers.aws_security_group.webserver_sg (expand) -->
<g id="edge16" class="edge">
<title>[root] module.webservers.aws_elb.my_first_elb (expand)&#45;&gt;[root] module.webservers.aws_security_group.webserver_sg (expand)</title>
<path fill="none" stroke="black" d="M2218.86,-227.42C1893.51,-215.58 1154.37,-188.39 1001.07,-180.03"/>
<polygon fill="black" stroke="black" points="1001.24,-176.53 991.06,-179.46 1000.85,-183.52 1001.24,-176.53"/>
</g>
<!-- [root] module.webservers.var.azs (expand) -->
<g id="node21" class="node">
<title>[root] module.webservers.var.azs (expand)</title>
<ellipse fill="none" stroke="black" cx="2072.93" cy="-90" rx="208.76" ry="18"/>
<text text-anchor="middle" x="2072.93" y="-86.3" font-family="Times,serif" font-size="14.00">[root] module.webservers.var.azs (expand)</text>
</g>
<!-- [root] module.webservers.aws_elb.my_first_elb (expand)&#45;&gt;[root] module.webservers.var.azs (expand) -->
<g id="edge17" class="edge">
<title>[root] module.webservers.aws_elb.my_first_elb (expand)&#45;&gt;[root] module.webservers.var.azs (expand)</title>
<path fill="none" stroke="black" d="M2439.49,-215.94C2457.28,-208.02 2474.46,-196.54 2484.93,-180 2493.49,-166.48 2495.5,-156.01 2484.93,-144 2475.85,-133.67 2331.28,-116.83 2215.93,-104.91"/>
<polygon fill="black" stroke="black" points="2216.23,-101.42 2205.93,-103.88 2215.52,-108.39 2216.23,-101.42"/>
</g>
<!-- [root] module.webservers.var.cluster (expand) -->
<g id="node22" class="node">
<title>[root] module.webservers.var.cluster (expand)</title>
<ellipse fill="none" stroke="black" cx="2757.93" cy="-162" rx="225.56" ry="18"/>
<text text-anchor="middle" x="2757.93" y="-158.3" font-family="Times,serif" font-size="14.00">[root] module.webservers.var.cluster (expand)</text>
</g>
<!-- [root] module.webservers.aws_elb.my_first_elb (expand)&#45;&gt;[root] module.webservers.var.cluster (expand) -->
<g id="edge18" class="edge">
<title>[root] module.webservers.aws_elb.my_first_elb (expand)&#45;&gt;[root] module.webservers.var.cluster (expand)</title>
<path fill="none" stroke="black" d="M2466.62,-215.97C2525.74,-205.22 2601.93,-191.36 2661.56,-180.52"/>
<polygon fill="black" stroke="black" points="2662.52,-183.9 2671.74,-178.67 2661.27,-177.02 2662.52,-183.9"/>
</g>
<!-- [root] module.webservers.var.http_port (expand) -->
<g id="node23" class="node">
<title>[root] module.webservers.var.http_port (expand)</title>
<ellipse fill="none" stroke="black" cx="1753.93" cy="-162" rx="237.46" ry="18"/>
<text text-anchor="middle" x="1753.93" y="-158.3" font-family="Times,serif" font-size="14.00">[root] module.webservers.var.http_port (expand)</text>
</g>
<!-- [root] module.webservers.aws_elb.my_first_elb (expand)&#45;&gt;[root] module.webservers.var.http_port (expand) -->
<g id="edge19" class="edge">
<title>[root] module.webservers.aws_elb.my_first_elb (expand)&#45;&gt;[root] module.webservers.var.http_port (expand)</title>
<path fill="none" stroke="black" d="M2222.3,-215.97C2120.93,-204.5 1988.36,-189.51 1890.14,-178.4"/>
<polygon fill="black" stroke="black" points="1890.48,-174.92 1880.15,-177.27 1889.69,-181.87 1890.48,-174.92"/>
</g>
<!-- [root] module.webservers.aws_launch_configuration.my&#45;first&#45;launch&#45;conf (expand)&#45;&gt;[root] module.webservers.aws_security_group.webserver_sg (expand) -->
<g id="edge20" class="edge">
<title>[root] module.webservers.aws_launch_configuration.my&#45;first&#45;launch&#45;conf (expand)&#45;&gt;[root] module.webservers.aws_security_group.webserver_sg (expand)</title>
<path fill="none" stroke="black" d="M2544.93,-216.42C2541.91,-216.27 2538.91,-216.13 2535.93,-216 1857.1,-185.34 1683.56,-215.14 1001.14,-180.04"/>
<polygon fill="black" stroke="black" points="1001.23,-176.54 991.06,-179.52 1000.86,-183.53 1001.23,-176.54"/>
</g>
<!-- [root] module.webservers.aws_launch_configuration.my&#45;first&#45;launch&#45;conf (expand)&#45;&gt;[root] module.webservers.var.cluster (expand) -->
<g id="edge22" class="edge">
<title>[root] module.webservers.aws_launch_configuration.my&#45;first&#45;launch&#45;conf (expand)&#45;&gt;[root] module.webservers.var.cluster (expand)</title>
<path fill="none" stroke="black" d="M2782.02,-215.7C2778.38,-207.73 2773.98,-198.1 2769.94,-189.26"/>
<polygon fill="black" stroke="black" points="2773.09,-187.74 2765.75,-180.1 2766.72,-190.65 2773.09,-187.74"/>
</g>
<!-- [root] module.webservers.var.ami (expand) -->
<g id="node24" class="node">
<title>[root] module.webservers.var.ami (expand)</title>
<ellipse fill="none" stroke="black" cx="2548.93" cy="-90" rx="210.66" ry="18"/>
<text text-anchor="middle" x="2548.93" y="-86.3" font-family="Times,serif" font-size="14.00">[root] module.webservers.var.ami (expand)</text>
</g>
<!-- [root] module.webservers.aws_launch_configuration.my&#45;first&#45;launch&#45;conf (expand)&#45;&gt;[root] module.webservers.var.ami (expand) -->
<g id="edge21" class="edge">
<title>[root] module.webservers.aws_launch_configuration.my&#45;first&#45;launch&#45;conf (expand)&#45;&gt;[root] module.webservers.var.ami (expand)</title>
<path fill="none" stroke="black" d="M2916.65,-215.97C2975.28,-202.91 3025.5,-180.69 2992.93,-144 2983.04,-132.85 2825.19,-116 2700.49,-104.31"/>
<polygon fill="black" stroke="black" points="2700.72,-100.81 2690.44,-103.37 2700.07,-107.78 2700.72,-100.81"/>
</g>
<!-- [root] module.webservers.var.instance_type (expand) -->
<g id="node25" class="node">
<title>[root] module.webservers.var.instance_type (expand)</title>
<ellipse fill="none" stroke="black" cx="3034.93" cy="-90" rx="257.25" ry="18"/>
<text text-anchor="middle" x="3034.93" y="-86.3" font-family="Times,serif" font-size="14.00">[root] module.webservers.var.instance_type (expand)</text>
</g>
<!-- [root] module.webservers.aws_launch_configuration.my&#45;first&#45;launch&#45;conf (expand)&#45;&gt;[root] module.webservers.var.instance_type (expand) -->
<g id="edge23" class="edge">
<title>[root] module.webservers.aws_launch_configuration.my&#45;first&#45;launch&#45;conf (expand)&#45;&gt;[root] module.webservers.var.instance_type (expand)</title>
<path fill="none" stroke="black" d="M2908.41,-215.96C2952.81,-207.31 2996.31,-195.34 3011.93,-180 3028.17,-164.06 3033.45,-138.26 3034.95,-118.54"/>
<polygon fill="black" stroke="black" points="3038.46,-118.46 3035.44,-108.3 3031.46,-118.13 3038.46,-118.46"/>
</g>
<!-- [root] module.webservers.aws_route53_record.elb&#45;endpoint (expand) -->
<g id="node6" class="node">
<title>[root] module.webservers.aws_route53_record.elb&#45;endpoint (expand)</title>
<polygon fill="none" stroke="black" points="1685.93,-396 1287.93,-396 1287.93,-360 1685.93,-360 1685.93,-396"/>
<text text-anchor="middle" x="1486.93" y="-374.3" font-family="Times,serif" font-size="14.00">module.webservers.aws_route53_record.elb&#45;endpoint</text>
</g>
<!-- [root] module.webservers.aws_route53_record.elb&#45;endpoint (expand)&#45;&gt;[root] module.webservers.aws_elb.my_first_elb (expand) -->
<g id="edge24" class="edge">
<title>[root] module.webservers.aws_route53_record.elb&#45;endpoint (expand)&#45;&gt;[root] module.webservers.aws_elb.my_first_elb (expand)</title>
<path fill="none" stroke="black" d="M1593.36,-359.94C1760.58,-333.14 2083.59,-281.37 2256.68,-253.63"/>
<polygon fill="black" stroke="black" points="2257.27,-257.08 2266.59,-252.04 2256.16,-250.17 2257.27,-257.08"/>
</g>
<!-- [root] module.webservers.aws_route53_zone.main (expand) -->
<g id="node7" class="node">
<title>[root] module.webservers.aws_route53_zone.main (expand)</title>
<polygon fill="none" stroke="black" points="568.43,-180 237.43,-180 237.43,-144 568.43,-144 568.43,-180"/>
<text text-anchor="middle" x="402.93" y="-158.3" font-family="Times,serif" font-size="14.00">module.webservers.aws_route53_zone.main</text>
</g>
<!-- [root] module.webservers.aws_route53_record.elb&#45;endpoint (expand)&#45;&gt;[root] module.webservers.aws_route53_zone.main (expand) -->
<g id="edge25" class="edge">
<title>[root] module.webservers.aws_route53_record.elb&#45;endpoint (expand)&#45;&gt;[root] module.webservers.aws_route53_zone.main (expand)</title>
<path fill="none" stroke="black" d="M1439.79,-359.85C1383.93,-340.09 1287.71,-307.79 1202.93,-288 1078.97,-259.06 730.03,-208.51 536.47,-181.41"/>
<polygon fill="black" stroke="black" points="536.9,-177.93 526.51,-180.02 535.93,-184.87 536.9,-177.93"/>
</g>
<!-- [root] provider[&quot;registry.terraform.io/hashicorp/aws&quot;] -->
<g id="node13" class="node">
<title>[root] provider[&quot;registry.terraform.io/hashicorp/aws&quot;]</title>
<polygon fill="none" stroke="black" points="788.93,-108 463.67,-90 788.93,-72 1114.19,-90 788.93,-108"/>
<text text-anchor="middle" x="788.93" y="-86.3" font-family="Times,serif" font-size="14.00">provider[&quot;registry.terraform.io/hashicorp/aws&quot;]</text>
</g>
<!-- [root] module.webservers.aws_route53_zone.main (expand)&#45;&gt;[root] provider[&quot;registry.terraform.io/hashicorp/aws&quot;] -->
<g id="edge28" class="edge">
<title>[root] module.webservers.aws_route53_zone.main (expand)&#45;&gt;[root] provider[&quot;registry.terraform.io/hashicorp/aws&quot;]</title>
<path fill="none" stroke="black" d="M496.86,-143.97C561.13,-132.31 645.49,-117.01 707.02,-105.85"/>
<polygon fill="black" stroke="black" points="707.86,-109.26 717.08,-104.03 706.61,-102.37 707.86,-109.26"/>
</g>
<!-- [root] module.webservers.var.environment (expand) -->
<g id="node26" class="node">
<title>[root] module.webservers.var.environment (expand)</title>
<ellipse fill="none" stroke="black" cx="1384.93" cy="-90" rx="252.66" ry="18"/>
<text text-anchor="middle" x="1384.93" y="-86.3" font-family="Times,serif" font-size="14.00">[root] module.webservers.var.environment (expand)</text>
</g>
<!-- [root] module.webservers.aws_route53_zone.main (expand)&#45;&gt;[root] module.webservers.var.environment (expand) -->
<g id="edge26" class="edge">
<title>[root] module.webservers.aws_route53_zone.main (expand)&#45;&gt;[root] module.webservers.var.environment (expand)</title>
<path fill="none" stroke="black" d="M568.72,-144.76C571.82,-144.5 574.89,-144.25 577.93,-144 608.18,-141.54 965.8,-118.22 1194.71,-103.34"/>
<polygon fill="black" stroke="black" points="1195.08,-106.83 1204.83,-102.68 1194.63,-99.84 1195.08,-106.83"/>
</g>
<!-- [root] module.webservers.var.vpc_id (expand) -->
<g id="node27" class="node">
<title>[root] module.webservers.var.vpc_id (expand)</title>
<ellipse fill="none" stroke="black" cx="222.93" cy="-90" rx="222.86" ry="18"/>
<text text-anchor="middle" x="222.93" y="-86.3" font-family="Times,serif" font-size="14.00">[root] module.webservers.var.vpc_id (expand)</text>
</g>
<!-- [root] module.webservers.aws_route53_zone.main (expand)&#45;&gt;[root] module.webservers.var.vpc_id (expand) -->
<g id="edge27" class="edge">
<title>[root] module.webservers.aws_route53_zone.main (expand)&#45;&gt;[root] module.webservers.var.vpc_id (expand)</title>
<path fill="none" stroke="black" d="M358.9,-143.88C333.68,-134.07 301.89,-121.71 275.39,-111.4"/>
<polygon fill="black" stroke="black" points="276.48,-108.07 265.89,-107.71 273.94,-114.59 276.48,-108.07"/>
</g>
<!-- [root] module.webservers.aws_security_group.webserver_sg (expand)&#45;&gt;[root] provider[&quot;registry.terraform.io/hashicorp/aws&quot;] -->
<g id="edge30" class="edge">
<title>[root] module.webservers.aws_security_group.webserver_sg (expand)&#45;&gt;[root] provider[&quot;registry.terraform.io/hashicorp/aws&quot;]</title>
<path fill="none" stroke="black" d="M788.93,-143.7C788.93,-135.98 788.93,-126.71 788.93,-118.11"/>
<polygon fill="black" stroke="black" points="792.43,-118.1 788.93,-108.1 785.43,-118.1 792.43,-118.1"/>
</g>
<!-- [root] module.webservers.aws_security_group.webserver_sg (expand)&#45;&gt;[root] module.webservers.var.environment (expand) -->
<g id="edge29" class="edge">
<title>[root] module.webservers.aws_security_group.webserver_sg (expand)&#45;&gt;[root] module.webservers.var.environment (expand)</title>
<path fill="none" stroke="black" d="M933.97,-143.97C1030.21,-132.66 1155.66,-117.93 1249.81,-106.87"/>
<polygon fill="black" stroke="black" points="1250.45,-110.32 1259.97,-105.68 1249.63,-103.37 1250.45,-110.32"/>
</g>
<!-- [root] module.webservers.aws_security_group_rule.allow_http (expand) -->
<g id="node9" class="node">
<title>[root] module.webservers.aws_security_group_rule.allow_http (expand)</title>
<polygon fill="none" stroke="black" points="1445.93,-252 1029.93,-252 1029.93,-216 1445.93,-216 1445.93,-252"/>
<text text-anchor="middle" x="1237.93" y="-230.3" font-family="Times,serif" font-size="14.00">module.webservers.aws_security_group_rule.allow_http</text>
</g>
<!-- [root] module.webservers.aws_security_group_rule.allow_http (expand)&#45;&gt;[root] module.webservers.aws_security_group.webserver_sg (expand) -->
<g id="edge31" class="edge">
<title>[root] module.webservers.aws_security_group_rule.allow_http (expand)&#45;&gt;[root] module.webservers.aws_security_group.webserver_sg (expand)</title>
<path fill="none" stroke="black" d="M1128.67,-215.97C1061.99,-205.57 976.7,-192.27 908.27,-181.6"/>
<polygon fill="black" stroke="black" points="908.71,-178.13 898.29,-180.05 907.64,-185.05 908.71,-178.13"/>
</g>
<!-- [root] module.webservers.aws_security_group_rule.allow_http (expand)&#45;&gt;[root] module.webservers.var.http_port (expand) -->
<g id="edge32" class="edge">
<title>[root] module.webservers.aws_security_group_rule.allow_http (expand)&#45;&gt;[root] module.webservers.var.http_port (expand)</title>
<path fill="none" stroke="black" d="M1363.5,-215.97C1445.6,-204.83 1552.26,-190.36 1633.34,-179.36"/>
<polygon fill="black" stroke="black" points="1634.16,-182.78 1643.6,-177.97 1633.22,-175.84 1634.16,-182.78"/>
</g>
<!-- [root] module.webservers.var.my_system (expand) -->
<g id="node28" class="node">
<title>[root] module.webservers.var.my_system (expand)</title>
<ellipse fill="none" stroke="black" cx="1253.93" cy="-162" rx="245.06" ry="18"/>
<text text-anchor="middle" x="1253.93" y="-158.3" font-family="Times,serif" font-size="14.00">[root] module.webservers.var.my_system (expand)</text>
</g>
<!-- [root] module.webservers.aws_security_group_rule.allow_http (expand)&#45;&gt;[root] module.webservers.var.my_system (expand) -->
<g id="edge33" class="edge">
<title>[root] module.webservers.aws_security_group_rule.allow_http (expand)&#45;&gt;[root] module.webservers.var.my_system (expand)</title>
<path fill="none" stroke="black" d="M1241.89,-215.7C1243.65,-207.98 1245.77,-198.71 1247.73,-190.11"/>
<polygon fill="black" stroke="black" points="1251.2,-190.63 1250.02,-180.1 1244.38,-189.07 1251.2,-190.63"/>
</g>
<!-- [root] module.webservers.aws_security_group_rule.allow_outgoing (expand) -->
<g id="node10" class="node">
<title>[root] module.webservers.aws_security_group_rule.allow_outgoing (expand)</title>
<polygon fill="none" stroke="black" points="1155.43,-396 706.43,-396 706.43,-360 1155.43,-360 1155.43,-396"/>
<text text-anchor="middle" x="930.93" y="-374.3" font-family="Times,serif" font-size="14.00">module.webservers.aws_security_group_rule.allow_outgoing</text>
</g>
<!-- [root] module.webservers.aws_security_group_rule.allow_outgoing (expand)&#45;&gt;[root] module.webservers.aws_security_group.webserver_sg (expand) -->
<g id="edge34" class="edge">
<title>[root] module.webservers.aws_security_group_rule.allow_outgoing (expand)&#45;&gt;[root] module.webservers.aws_security_group.webserver_sg (expand)</title>
<path fill="none" stroke="black" d="M767.1,-359.94C690.91,-350.32 614.45,-337.53 602.93,-324 554.31,-266.89 659.93,-212.37 731.05,-183.76"/>
<polygon fill="black" stroke="black" points="732.39,-187 740.4,-180.07 729.82,-180.49 732.39,-187"/>
</g>
<!-- [root] module.webservers.aws_security_group_rule.allow_ssh (expand) -->
<g id="node11" class="node">
<title>[root] module.webservers.aws_security_group_rule.allow_ssh (expand)</title>
<polygon fill="none" stroke="black" points="1873.93,-252 1463.93,-252 1463.93,-216 1873.93,-216 1873.93,-252"/>
<text text-anchor="middle" x="1668.93" y="-230.3" font-family="Times,serif" font-size="14.00">module.webservers.aws_security_group_rule.allow_ssh</text>
</g>
<!-- [root] module.webservers.aws_security_group_rule.allow_ssh (expand)&#45;&gt;[root] module.webservers.aws_security_group.webserver_sg (expand) -->
<g id="edge35" class="edge">
<title>[root] module.webservers.aws_security_group_rule.allow_ssh (expand)&#45;&gt;[root] module.webservers.aws_security_group.webserver_sg (expand)</title>
<path fill="none" stroke="black" d="M1463.91,-216.71C1460.9,-216.47 1457.9,-216.24 1454.93,-216 1255.97,-200.23 1203.81,-196.27 1001.15,-180.1"/>
<polygon fill="black" stroke="black" points="1001.32,-176.6 991.07,-179.29 1000.76,-183.58 1001.32,-176.6"/>
</g>
<!-- [root] module.webservers.aws_security_group_rule.allow_ssh (expand)&#45;&gt;[root] module.webservers.var.my_system (expand) -->
<g id="edge36" class="edge">
<title>[root] module.webservers.aws_security_group_rule.allow_ssh (expand)&#45;&gt;[root] module.webservers.var.my_system (expand)</title>
<path fill="none" stroke="black" d="M1567.94,-215.97C1503.95,-205.17 1421.41,-191.25 1357.01,-180.39"/>
<polygon fill="black" stroke="black" points="1357.28,-176.88 1346.84,-178.67 1356.12,-183.79 1357.28,-176.88"/>
</g>
<!-- [root] module.webservers.var.ssh_port (expand) -->
<g id="node29" class="node">
<title>[root] module.webservers.var.ssh_port (expand)</title>
<ellipse fill="none" stroke="black" cx="2242.93" cy="-162" rx="233.16" ry="18"/>
<text text-anchor="middle" x="2242.93" y="-158.3" font-family="Times,serif" font-size="14.00">[root] module.webservers.var.ssh_port (expand)</text>
</g>
<!-- [root] module.webservers.aws_security_group_rule.allow_ssh (expand)&#45;&gt;[root] module.webservers.var.ssh_port (expand) -->
<g id="edge37" class="edge">
<title>[root] module.webservers.aws_security_group_rule.allow_ssh (expand)&#45;&gt;[root] module.webservers.var.ssh_port (expand)</title>
<path fill="none" stroke="black" d="M1808.61,-215.97C1901.69,-204.61 2023.13,-189.8 2113.93,-178.73"/>
<polygon fill="black" stroke="black" points="2114.5,-182.19 2124,-177.5 2113.65,-175.24 2114.5,-182.19"/>
</g>
<!-- [root] output.elb_dns_name -->
<g id="node12" class="node">
<title>[root] output.elb_dns_name</title>
<polygon fill="none" stroke="black" points="2442.93,-468 2280.93,-468 2280.93,-432 2448.93,-432 2448.93,-462 2442.93,-468"/>
<polyline fill="none" stroke="black" points="2442.93,-468 2442.93,-462 "/>
<polyline fill="none" stroke="black" points="2448.93,-462 2442.93,-462 "/>
<text text-anchor="middle" x="2364.93" y="-446.3" font-family="Times,serif" font-size="14.00">output.elb_dns_name</text>
</g>
<!-- [root] module.webservers.output.DNS_name_elb (expand) -->
<g id="node19" class="node">
<title>[root] module.webservers.output.DNS_name_elb (expand)</title>
<ellipse fill="none" stroke="black" cx="2545.93" cy="-378" rx="280.25" ry="18"/>
<text text-anchor="middle" x="2545.93" y="-374.3" font-family="Times,serif" font-size="14.00">[root] module.webservers.output.DNS_name_elb (expand)</text>
</g>
<!-- [root] output.elb_dns_name&#45;&gt;[root] module.webservers.output.DNS_name_elb (expand) -->
<g id="edge51" class="edge">
<title>[root] output.elb_dns_name&#45;&gt;[root] module.webservers.output.DNS_name_elb (expand)</title>
<path fill="none" stroke="black" d="M2409.21,-431.88C2434.47,-422.11 2466.3,-409.8 2492.89,-399.51"/>
<polygon fill="black" stroke="black" points="2494.36,-402.7 2502.42,-395.83 2491.83,-396.17 2494.36,-402.7"/>
</g>
<!-- [root] var.region -->
<g id="node14" class="node">
<title>[root] var.region</title>
<polygon fill="none" stroke="black" points="827.43,-36 744.43,-36 744.43,0 833.43,0 833.43,-30 827.43,-36"/>
<polyline fill="none" stroke="black" points="827.43,-36 827.43,-30 "/>
<polyline fill="none" stroke="black" points="833.43,-30 827.43,-30 "/>
<text text-anchor="middle" x="788.93" y="-14.3" font-family="Times,serif" font-size="14.00">var.region</text>
</g>
<!-- [root] provider[&quot;registry.terraform.io/hashicorp/aws&quot;]&#45;&gt;[root] var.region -->
<g id="edge58" class="edge">
<title>[root] provider[&quot;registry.terraform.io/hashicorp/aws&quot;]&#45;&gt;[root] var.region</title>
<path fill="none" stroke="black" d="M788.93,-71.7C788.93,-63.98 788.93,-54.71 788.93,-46.11"/>
<polygon fill="black" stroke="black" points="792.43,-46.1 788.93,-36.1 785.43,-46.1 792.43,-46.1"/>
</g>
<!-- [root] var.vpc_id -->
<g id="node15" class="node">
<title>[root] var.vpc_id</title>
<polygon fill="none" stroke="black" points="260.93,-36 178.93,-36 178.93,0 266.93,0 266.93,-30 260.93,-36"/>
<polyline fill="none" stroke="black" points="260.93,-36 260.93,-30 "/>
<polyline fill="none" stroke="black" points="266.93,-30 260.93,-30 "/>
<text text-anchor="middle" x="222.93" y="-14.3" font-family="Times,serif" font-size="14.00">var.vpc_id</text>
</g>
<!-- [root] module.webservers.output.my_module_sg_id (expand)&#45;&gt;[root] module.webservers.aws_security_group.webserver_sg (expand) -->
<g id="edge39" class="edge">
<title>[root] module.webservers.output.my_module_sg_id (expand)&#45;&gt;[root] module.webservers.aws_security_group.webserver_sg (expand)</title>
<path fill="none" stroke="black" d="M889.18,-287.87C869.24,-263.03 832.16,-216.85 809.11,-188.14"/>
<polygon fill="black" stroke="black" points="811.72,-185.8 802.73,-180.19 806.26,-190.18 811.72,-185.8"/>
</g>
<!-- [root] meta.count&#45;boundary (EachMode fixup) -->
<g id="node17" class="node">
<title>[root] meta.count&#45;boundary (EachMode fixup)</title>
<ellipse fill="none" stroke="black" cx="1816.93" cy="-522" rx="222.86" ry="18"/>
<text text-anchor="middle" x="1816.93" y="-518.3" font-family="Times,serif" font-size="14.00">[root] meta.count&#45;boundary (EachMode fixup)</text>
</g>
<!-- [root] meta.count&#45;boundary (EachMode fixup)&#45;&gt;[root] aws_security_group_rule.allow_mytest (expand) -->
<g id="edge2" class="edge">
<title>[root] meta.count&#45;boundary (EachMode fixup)&#45;&gt;[root] aws_security_group_rule.allow_mytest (expand)</title>
<path fill="none" stroke="black" d="M1603.62,-516.65C1429.48,-510.98 1177.39,-497.95 958.93,-468 838.34,-451.47 700.61,-419.34 617.79,-398.54"/>
<polygon fill="black" stroke="black" points="618.52,-395.12 607.96,-396.07 616.8,-401.91 618.52,-395.12"/>
</g>
<!-- [root] meta.count&#45;boundary (EachMode fixup)&#45;&gt;[root] output.elb_dns_name -->
<g id="edge4" class="edge">
<title>[root] meta.count&#45;boundary (EachMode fixup)&#45;&gt;[root] output.elb_dns_name</title>
<path fill="none" stroke="black" d="M1930.48,-506.5C2031.05,-493.65 2176.16,-475.11 2270.5,-463.06"/>
<polygon fill="black" stroke="black" points="2271.14,-466.51 2280.61,-461.77 2270.25,-459.57 2271.14,-466.51"/>
</g>
<!-- [root] module.webservers (close) -->
<g id="node18" class="node">
<title>[root] module.webservers (close)</title>
<ellipse fill="none" stroke="black" cx="1918.93" cy="-450" rx="163.27" ry="18"/>
<text text-anchor="middle" x="1918.93" y="-446.3" font-family="Times,serif" font-size="14.00">[root] module.webservers (close)</text>
</g>
<!-- [root] meta.count&#45;boundary (EachMode fixup)&#45;&gt;[root] module.webservers (close) -->
<g id="edge3" class="edge">
<title>[root] meta.count&#45;boundary (EachMode fixup)&#45;&gt;[root] module.webservers (close)</title>
<path fill="none" stroke="black" d="M1841.62,-504.05C1854.8,-495.01 1871.22,-483.74 1885.52,-473.93"/>
<polygon fill="black" stroke="black" points="1887.85,-476.58 1894.11,-468.03 1883.89,-470.8 1887.85,-476.58"/>
</g>
<!-- [root] module.webservers (close)&#45;&gt;[root] module.webservers.aws_autoscaling_policy.my_asg_policy (expand) -->
<g id="edge5" class="edge">
<title>[root] module.webservers (close)&#45;&gt;[root] module.webservers.aws_autoscaling_policy.my_asg_policy (expand)</title>
<path fill="none" stroke="black" d="M1918.93,-431.7C1918.93,-423.98 1918.93,-414.71 1918.93,-406.11"/>
<polygon fill="black" stroke="black" points="1922.43,-406.1 1918.93,-396.1 1915.43,-406.1 1922.43,-406.1"/>
</g>
<!-- [root] module.webservers (close)&#45;&gt;[root] module.webservers.aws_route53_record.elb&#45;endpoint (expand) -->
<g id="edge6" class="edge">
<title>[root] module.webservers (close)&#45;&gt;[root] module.webservers.aws_route53_record.elb&#45;endpoint (expand)</title>
<path fill="none" stroke="black" d="M1831.25,-434.79C1765.18,-424.09 1673.98,-409.31 1602.04,-397.65"/>
<polygon fill="black" stroke="black" points="1602.45,-394.17 1592.02,-396.03 1601.33,-401.08 1602.45,-394.17"/>
</g>
<!-- [root] module.webservers (close)&#45;&gt;[root] module.webservers.aws_security_group_rule.allow_http (expand) -->
<g id="edge7" class="edge">
<title>[root] module.webservers (close)&#45;&gt;[root] module.webservers.aws_security_group_rule.allow_http (expand)</title>
<path fill="none" stroke="black" d="M2039.7,-437.82C2111.32,-426.48 2181.28,-404.01 2142.93,-360 2119.12,-332.67 1667.83,-280.63 1411.72,-253.11"/>
<polygon fill="black" stroke="black" points="1411.88,-249.61 1401.56,-252.02 1411.13,-256.57 1411.88,-249.61"/>
</g>
<!-- [root] module.webservers (close)&#45;&gt;[root] module.webservers.aws_security_group_rule.allow_outgoing (expand) -->
<g id="edge8" class="edge">
<title>[root] module.webservers (close)&#45;&gt;[root] module.webservers.aws_security_group_rule.allow_outgoing (expand)</title>
<path fill="none" stroke="black" d="M1785.68,-439.56C1627,-428.32 1359.13,-409.34 1165.5,-395.62"/>
<polygon fill="black" stroke="black" points="1165.69,-392.12 1155.47,-394.91 1165.19,-399.11 1165.69,-392.12"/>
</g>
<!-- [root] module.webservers (close)&#45;&gt;[root] module.webservers.aws_security_group_rule.allow_ssh (expand) -->
<g id="edge9" class="edge">
<title>[root] module.webservers (close)&#45;&gt;[root] module.webservers.aws_security_group_rule.allow_ssh (expand)</title>
<path fill="none" stroke="black" d="M2042.73,-438.25C2099.67,-430.48 2158.45,-417.46 2175.93,-396 2206.25,-358.79 2208.06,-323.66 2175.93,-288 2155.72,-265.57 2013.03,-251.99 1884.16,-244.21"/>
<polygon fill="black" stroke="black" points="1884.31,-240.71 1874.12,-243.61 1883.89,-247.7 1884.31,-240.71"/>
</g>
<!-- [root] module.webservers (close)&#45;&gt;[root] module.webservers.output.my_module_sg_id (expand) -->
<g id="edge11" class="edge">
<title>[root] module.webservers (close)&#45;&gt;[root] module.webservers.output.my_module_sg_id (expand)</title>
<path fill="none" stroke="black" d="M1777.68,-440.99C1618.83,-431.33 1371.03,-414.12 1278.93,-396 1226.8,-385.74 1216.38,-373.29 1164.93,-360 1112.49,-346.46 1053.41,-334.25 1004.64,-324.97"/>
<polygon fill="black" stroke="black" points="1005.19,-321.51 994.72,-323.09 1003.89,-328.39 1005.19,-321.51"/>
</g>
<!-- [root] module.webservers (close)&#45;&gt;[root] module.webservers.output.DNS_name_elb (expand) -->
<g id="edge10" class="edge">
<title>[root] module.webservers (close)&#45;&gt;[root] module.webservers.output.DNS_name_elb (expand)</title>
<path fill="none" stroke="black" d="M2029.22,-436.69C2133.08,-425.09 2289.23,-407.66 2402.69,-394.99"/>
<polygon fill="black" stroke="black" points="2403.29,-398.45 2412.84,-393.86 2402.51,-391.49 2403.29,-398.45"/>
</g>
<!-- [root] module.webservers.var.region (expand) -->
<g id="node20" class="node">
<title>[root] module.webservers.var.region (expand)</title>
<ellipse fill="none" stroke="black" cx="2887.93" cy="-306" rx="223.66" ry="18"/>
<text text-anchor="middle" x="2887.93" y="-302.3" font-family="Times,serif" font-size="14.00">[root] module.webservers.var.region (expand)</text>
</g>
<!-- [root] module.webservers (close)&#45;&gt;[root] module.webservers.var.region (expand) -->
<g id="edge12" class="edge">
<title>[root] module.webservers (close)&#45;&gt;[root] module.webservers.var.region (expand)</title>
<path fill="none" stroke="black" d="M2053.36,-439.69C2105.36,-432.34 2164.2,-419.25 2213.93,-396 2236.51,-385.44 2233.88,-369.49 2256.93,-360 2267.66,-355.58 2538.88,-333.93 2722.2,-319.7"/>
<polygon fill="black" stroke="black" points="2722.53,-323.18 2732.23,-318.92 2721.99,-316.21 2722.53,-323.18"/>
</g>
<!-- [root] module.webservers.output.DNS_name_elb (expand)&#45;&gt;[root] module.webservers.aws_elb.my_first_elb (expand) -->
<g id="edge38" class="edge">
<title>[root] module.webservers.output.DNS_name_elb (expand)&#45;&gt;[root] module.webservers.aws_elb.my_first_elb (expand)</title>
<path fill="none" stroke="black" d="M2792.98,-369.5C2938.3,-362.47 3098.05,-349.09 3120.93,-324 3131.71,-312.18 3131.89,-299.66 3120.93,-288 3078.02,-242.36 2636.42,-256.19 2537.45,-251.88"/>
<polygon fill="black" stroke="black" points="2537.54,-248.38 2527.35,-251.27 2537.12,-255.36 2537.54,-248.38"/>
</g>
<!-- [root] module.webservers (expand) -->
<g id="node30" class="node">
<title>[root] module.webservers (expand)</title>
<ellipse fill="none" stroke="black" cx="1953.93" cy="-18" rx="173.57" ry="18"/>
<text text-anchor="middle" x="1953.93" y="-14.3" font-family="Times,serif" font-size="14.00">[root] module.webservers (expand)</text>
</g>
<!-- [root] module.webservers.var.region (expand)&#45;&gt;[root] module.webservers (expand) -->
<g id="edge47" class="edge">
<title>[root] module.webservers.var.region (expand)&#45;&gt;[root] module.webservers (expand)</title>
<path fill="none" stroke="black" d="M2975.66,-289.43C3126.74,-259.16 3409.84,-185.28 3300.93,-72 3261.28,-30.76 2496.18,-21.6 2137.11,-19.57"/>
<polygon fill="black" stroke="black" points="2136.88,-16.07 2126.86,-19.51 2136.85,-23.07 2136.88,-16.07"/>
</g>
<!-- [root] module.webservers.var.azs (expand)&#45;&gt;[root] module.webservers (expand) -->
<g id="edge41" class="edge">
<title>[root] module.webservers.var.azs (expand)&#45;&gt;[root] module.webservers (expand)</title>
<path fill="none" stroke="black" d="M2044.12,-72.05C2028.19,-62.68 2008.22,-50.93 1991.12,-40.87"/>
<polygon fill="black" stroke="black" points="1992.87,-37.84 1982.47,-35.79 1989.32,-43.88 1992.87,-37.84"/>
</g>
<!-- [root] module.webservers.var.cluster (expand)&#45;&gt;[root] module.webservers (expand) -->
<g id="edge42" class="edge">
<title>[root] module.webservers.var.cluster (expand)&#45;&gt;[root] module.webservers (expand)</title>
<path fill="none" stroke="black" d="M2583.89,-150.52C2485.53,-142.45 2373.56,-129.05 2328.93,-108 2307.89,-98.08 2311.81,-82.27 2290.93,-72 2255.51,-54.58 2165.61,-40.93 2087.56,-31.85"/>
<polygon fill="black" stroke="black" points="2087.95,-28.37 2077.62,-30.71 2087.15,-35.32 2087.95,-28.37"/>
</g>
<!-- [root] module.webservers.var.http_port (expand)&#45;&gt;[root] module.webservers (expand) -->
<g id="edge44" class="edge">
<title>[root] module.webservers.var.http_port (expand)&#45;&gt;[root] module.webservers (expand)</title>
<path fill="none" stroke="black" d="M1763.29,-143.69C1774.77,-123.92 1795.93,-91.77 1821.93,-72 1840.77,-57.68 1864,-46.65 1885.69,-38.46"/>
<polygon fill="black" stroke="black" points="1886.99,-41.71 1895.2,-35.01 1884.61,-35.13 1886.99,-41.71"/>
</g>
<!-- [root] module.webservers.var.ami (expand)&#45;&gt;[root] module.webservers (expand) -->
<g id="edge40" class="edge">
<title>[root] module.webservers.var.ami (expand)&#45;&gt;[root] module.webservers (expand)</title>
<path fill="none" stroke="black" d="M2430.67,-75.09C2327.35,-62.93 2178.06,-45.37 2074.16,-33.15"/>
<polygon fill="black" stroke="black" points="2074.28,-29.63 2063.94,-31.94 2073.46,-36.59 2074.28,-29.63"/>
</g>
<!-- [root] module.webservers.var.instance_type (expand)&#45;&gt;[root] module.webservers (expand) -->
<g id="edge45" class="edge">
<title>[root] module.webservers.var.instance_type (expand)&#45;&gt;[root] module.webservers (expand)</title>
<path fill="none" stroke="black" d="M2853.08,-77.22C2643.62,-63.66 2303.21,-41.62 2106.82,-28.9"/>
<polygon fill="black" stroke="black" points="2106.92,-25.4 2096.71,-28.25 2106.47,-32.38 2106.92,-25.4"/>
</g>
<!-- [root] module.webservers.var.environment (expand)&#45;&gt;[root] module.webservers (expand) -->
<g id="edge43" class="edge">
<title>[root] module.webservers.var.environment (expand)&#45;&gt;[root] module.webservers (expand)</title>
<path fill="none" stroke="black" d="M1505.6,-74.15C1603.27,-62.14 1740.02,-45.32 1836.75,-33.42"/>
<polygon fill="black" stroke="black" points="1837.37,-36.87 1846.86,-32.17 1836.51,-29.92 1837.37,-36.87"/>
</g>
<!-- [root] module.webservers.var.vpc_id (expand)&#45;&gt;[root] var.vpc_id -->
<g id="edge50" class="edge">
<title>[root] module.webservers.var.vpc_id (expand)&#45;&gt;[root] var.vpc_id</title>
<path fill="none" stroke="black" d="M222.93,-71.7C222.93,-63.98 222.93,-54.71 222.93,-46.11"/>
<polygon fill="black" stroke="black" points="226.43,-46.1 222.93,-36.1 219.43,-46.1 226.43,-46.1"/>
</g>
<!-- [root] module.webservers.var.vpc_id (expand)&#45;&gt;[root] module.webservers (expand) -->
<g id="edge49" class="edge">
<title>[root] module.webservers.var.vpc_id (expand)&#45;&gt;[root] module.webservers (expand)</title>
<path fill="none" stroke="black" d="M376.37,-76.93C402.57,-75.11 429.52,-73.38 454.93,-72 932.19,-46.09 1495.64,-30.09 1776.36,-23.11"/>
<polygon fill="black" stroke="black" points="1776.73,-26.6 1786.64,-22.85 1776.55,-19.6 1776.73,-26.6"/>
</g>
<!-- [root] module.webservers.var.my_system (expand)&#45;&gt;[root] module.webservers (expand) -->
<g id="edge46" class="edge">
<title>[root] module.webservers.var.my_system (expand)&#45;&gt;[root] module.webservers (expand)</title>
<path fill="none" stroke="black" d="M1393.93,-147.22C1469.35,-138.52 1563.74,-125.57 1646.93,-108 1693.63,-98.14 1816.2,-61.34 1891.58,-38.26"/>
<polygon fill="black" stroke="black" points="1892.9,-41.52 1901.44,-35.24 1890.85,-34.83 1892.9,-41.52"/>
</g>
<!-- [root] module.webservers.var.ssh_port (expand)&#45;&gt;[root] module.webservers (expand) -->
<g id="edge48" class="edge">
<title>[root] module.webservers.var.ssh_port (expand)&#45;&gt;[root] module.webservers (expand)</title>
<path fill="none" stroke="black" d="M2082.26,-148.94C1982.5,-139.77 1870.39,-125.72 1854.93,-108 1844.41,-95.94 1846.71,-85.73 1854.93,-72 1863.31,-58.01 1876.78,-47.51 1891.12,-39.7"/>
<polygon fill="black" stroke="black" points="1892.76,-42.8 1900.13,-35.18 1889.62,-36.54 1892.76,-42.8"/>
</g>
<!-- [root] provider[&quot;registry.terraform.io/hashicorp/aws&quot;] (close) -->
<g id="node31" class="node">
<title>[root] provider[&quot;registry.terraform.io/hashicorp/aws&quot;] (close)</title>
<ellipse fill="none" stroke="black" cx="1259.93" cy="-450" rx="291.65" ry="18"/>
<text text-anchor="middle" x="1259.93" y="-446.3" font-family="Times,serif" font-size="14.00">[root] provider[&quot;registry.terraform.io/hashicorp/aws&quot;] (close)</text>
</g>
<!-- [root] provider[&quot;registry.terraform.io/hashicorp/aws&quot;] (close)&#45;&gt;[root] aws_security_group_rule.allow_mytest (expand) -->
<g id="edge52" class="edge">
<title>[root] provider[&quot;registry.terraform.io/hashicorp/aws&quot;] (close)&#45;&gt;[root] aws_security_group_rule.allow_mytest (expand)</title>
<path fill="none" stroke="black" d="M1102.71,-434.82C992.63,-424.73 841.81,-410.61 698.83,-396.08"/>
<polygon fill="black" stroke="black" points="698.85,-392.57 688.54,-395.04 698.14,-399.53 698.85,-392.57"/>
</g>
<!-- [root] provider[&quot;registry.terraform.io/hashicorp/aws&quot;] (close)&#45;&gt;[root] module.webservers.aws_autoscaling_policy.my_asg_policy (expand) -->
<g id="edge53" class="edge">
<title>[root] provider[&quot;registry.terraform.io/hashicorp/aws&quot;] (close)&#45;&gt;[root] module.webservers.aws_autoscaling_policy.my_asg_policy (expand)</title>
<path fill="none" stroke="black" d="M1399.69,-434.15C1501.63,-423.33 1640.34,-408.59 1748.74,-397.08"/>
<polygon fill="black" stroke="black" points="1749.23,-400.55 1758.81,-396.01 1748.49,-393.58 1749.23,-400.55"/>
</g>
<!-- [root] provider[&quot;registry.terraform.io/hashicorp/aws&quot;] (close)&#45;&gt;[root] module.webservers.aws_route53_record.elb&#45;endpoint (expand) -->
<g id="edge54" class="edge">
<title>[root] provider[&quot;registry.terraform.io/hashicorp/aws&quot;] (close)&#45;&gt;[root] module.webservers.aws_route53_record.elb&#45;endpoint (expand)</title>
<path fill="none" stroke="black" d="M1314.3,-432.23C1346.53,-422.29 1387.59,-409.63 1421.58,-399.15"/>
<polygon fill="black" stroke="black" points="1422.9,-402.41 1431.42,-396.12 1420.84,-395.72 1422.9,-402.41"/>
</g>
<!-- [root] provider[&quot;registry.terraform.io/hashicorp/aws&quot;] (close)&#45;&gt;[root] module.webservers.aws_security_group_rule.allow_http (expand) -->
<g id="edge55" class="edge">
<title>[root] provider[&quot;registry.terraform.io/hashicorp/aws&quot;] (close)&#45;&gt;[root] module.webservers.aws_security_group_rule.allow_http (expand)</title>
<path fill="none" stroke="black" d="M1254.33,-431.53C1251.3,-421.29 1247.8,-408.04 1245.93,-396 1238.71,-349.49 1237.53,-294.61 1237.56,-262.43"/>
<polygon fill="black" stroke="black" points="1241.06,-262.06 1237.62,-252.04 1234.06,-262.02 1241.06,-262.06"/>
</g>
<!-- [root] provider[&quot;registry.terraform.io/hashicorp/aws&quot;] (close)&#45;&gt;[root] module.webservers.aws_security_group_rule.allow_outgoing (expand) -->
<g id="edge56" class="edge">
<title>[root] provider[&quot;registry.terraform.io/hashicorp/aws&quot;] (close)&#45;&gt;[root] module.webservers.aws_security_group_rule.allow_outgoing (expand)</title>
<path fill="none" stroke="black" d="M1182.79,-432.59C1134.36,-422.28 1071.7,-408.95 1020.99,-398.16"/>
<polygon fill="black" stroke="black" points="1021.53,-394.7 1011.02,-396.04 1020.07,-401.54 1021.53,-394.7"/>
</g>
<!-- [root] provider[&quot;registry.terraform.io/hashicorp/aws&quot;] (close)&#45;&gt;[root] module.webservers.aws_security_group_rule.allow_ssh (expand) -->
<g id="edge57" class="edge">
<title>[root] provider[&quot;registry.terraform.io/hashicorp/aws&quot;] (close)&#45;&gt;[root] module.webservers.aws_security_group_rule.allow_ssh (expand)</title>
<path fill="none" stroke="black" d="M1258.81,-431.66C1258.5,-411.86 1261.12,-379.68 1278.93,-360 1331.21,-302.23 1410.19,-271.01 1483.43,-254.2"/>
<polygon fill="black" stroke="black" points="1484.25,-257.6 1493.26,-252.02 1482.74,-250.77 1484.25,-257.6"/>
</g>
<!-- [root] root -->
<g id="node32" class="node">
<title>[root] root</title>
<ellipse fill="none" stroke="black" cx="1588.93" cy="-594" rx="58.49" ry="18"/>
<text text-anchor="middle" x="1588.93" y="-590.3" font-family="Times,serif" font-size="14.00">[root] root</text>
</g>
<!-- [root] root&#45;&gt;[root] meta.count&#45;boundary (EachMode fixup) -->
<g id="edge59" class="edge">
<title>[root] root&#45;&gt;[root] meta.count&#45;boundary (EachMode fixup)</title>
<path fill="none" stroke="black" d="M1628.91,-580.73C1663.36,-570.15 1713.7,-554.69 1753.63,-542.44"/>
<polygon fill="black" stroke="black" points="1754.74,-545.75 1763.27,-539.47 1752.69,-539.06 1754.74,-545.75"/>
</g>
<!-- [root] root&#45;&gt;[root] provider[&quot;registry.terraform.io/hashicorp/aws&quot;] (close) -->
<g id="edge60" class="edge">
<title>[root] root&#45;&gt;[root] provider[&quot;registry.terraform.io/hashicorp/aws&quot;] (close)</title>
<path fill="none" stroke="black" d="M1556.48,-579C1498.35,-553.9 1376.15,-501.16 1308.17,-471.82"/>
<polygon fill="black" stroke="black" points="1309.51,-468.59 1298.95,-467.84 1306.74,-475.02 1309.51,-468.59"/>
</g>
</g>
</svg>
